name GIL11_xslow1.mot
datacolumns 153
datarows 4
range 0.28333336 0.30833337
endheader

                time	           pelvis_tx	           pelvis_ty	           pelvis_tz	         pelvis_tilt	         pelvis_list	     pelvis_rotation	       hip_flexion_r	     hip_adduction_r	      hip_rotation_r	        knee_angle_r	       ankle_angle_r	    subtalar_angle_r	         mtp_angle_r	       hip_flexion_l	     hip_adduction_l	      hip_rotation_l	        knee_angle_l	       ankle_angle_l	    subtalar_angle_l	         mtp_angle_l	    lumbar_extension	      lumbar_bending	     lumbar_rotation	     ground_force_vx	     ground_force_vy	     ground_force_vz	     ground_force_px	     ground_force_py	     ground_force_pz	     ground_force_vx	     ground_force_vy	     ground_force_vz	     ground_force_px	     ground_force_py	     ground_force_pz	     ground_torque_x	     ground_torque_y	     ground_torque_z	     ground_torque_x	     ground_torque_y	     ground_torque_z	    ground_marker_px	    ground_marker_py	    ground_marker_pz	    ground_marker_px	    ground_marker_py	    ground_marker_pz	    ground_marker_px	    ground_marker_py	    ground_marker_pz	    ground_marker_px	    ground_marker_py	    ground_marker_pz	    ground_marker_px	    ground_marker_py	    ground_marker_pz	    ground_marker_px	    ground_marker_py	    ground_marker_pz	    ground_marker_px	    ground_marker_py	    ground_marker_pz	    ground_marker_px	    ground_marker_py	    ground_marker_pz	    ground_marker_px	    ground_marker_py	    ground_marker_pz	    ground_marker_px	    ground_marker_py	    ground_marker_pz	    ground_marker_px	    ground_marker_py	    ground_marker_pz	    ground_marker_px	    ground_marker_py	    ground_marker_pz	    ground_marker_px	    ground_marker_py	    ground_marker_pz	    ground_marker_px	    ground_marker_py	    ground_marker_pz	    ground_marker_px	    ground_marker_py	    ground_marker_pz	    ground_marker_px	    ground_marker_py	    ground_marker_pz	    ground_marker_px	    ground_marker_py	    ground_marker_pz	    ground_marker_px	    ground_marker_py	    ground_marker_pz	    ground_marker_px	    ground_marker_py	    ground_marker_pz	    ground_marker_px	    ground_marker_py	    ground_marker_pz	    ground_marker_px	    ground_marker_py	    ground_marker_pz	    ground_marker_px	    ground_marker_py	    ground_marker_pz	    ground_marker_px	    ground_marker_py	    ground_marker_pz	    ground_marker_px	    ground_marker_py	    ground_marker_pz	    ground_marker_px	    ground_marker_py	    ground_marker_pz	    ground_marker_px	    ground_marker_py	    ground_marker_pz	    ground_marker_px	    ground_marker_py	    ground_marker_pz	    ground_marker_px	    ground_marker_py	    ground_marker_pz	    ground_marker_px	    ground_marker_py	    ground_marker_pz	    ground_marker_px	    ground_marker_py	    ground_marker_pz	    ground_marker_px	    ground_marker_py	    ground_marker_pz	    ground_marker_px	    ground_marker_py	    ground_marker_pz	    ground_marker_px	    ground_marker_py	    ground_marker_pz	    ground_marker_px	    ground_marker_py	    ground_marker_pz	    ground_marker_px	    ground_marker_py	    ground_marker_pz	    ground_marker_px	    ground_marker_py	    ground_marker_pz	    ground_marker_px	    ground_marker_py	    ground_marker_pz	
          0.28333336	          0.20527339	          0.88047796	         -0.29974312	         -2.49181461	          4.67997122	         -2.42656183	          1.69099998	        -10.09895229	          1.56922364	        -47.04783249	        -24.46669579	          0.00000000	          0.00000000	         11.27768326	          6.67033482	          5.79232264	         -7.38739443	         -1.19726181	          0.00000000	          0.00000000	         -3.88699317	         -6.24377155	          2.07373667	          0.00000000	          0.00000000	          0.00000000	          0.57500128	          0.00000000	         -0.24338286	        -47.83047163	        603.63931999	         22.55838948	          0.21144962	          0.00000000	         -0.34510248	          0.00000000	          0.00000000	          0.00000000	          0.00000000	          1.37695056	          0.00000000	          0.13384061	          0.82677495	         -0.30625319	          0.11531850	          0.79908317	         -0.23452869	          0.11967152	          0.80918688	         -0.38625798	          0.10627360	          0.42648521	         -0.19464748	          0.17494084	          0.43178305	         -0.36417934	         -0.16939455	          0.17653680	         -0.22007473	          0.17864239	          0.06878292	         -0.33497900	          0.20527339	          0.88047796	         -0.29974312	          0.19798443	          0.87236530	         -0.18151435	          0.21256235	          0.88859063	         -0.41797188	          0.00522800	          0.93342853	         -0.27697459	          0.00581665	          0.93156224	         -0.33170655	          0.10449260	          0.43269780	         -0.13700868	          0.18525729	          0.42995661	         -0.42122525	          0.13002464	          0.42004392	         -0.25536191	          0.18268295	          0.44389272	         -0.30513549	         -0.18564267	          0.19104391	         -0.18652561	          0.16776034	          0.06558634	         -0.37333733	         -0.14975515	          0.17223582	         -0.24914469	          0.18951300	          0.07833923	         -0.31072059	          0.05566640	          1.37599587	         -0.30162287	          0.18069690	          1.31541300	         -0.24779639	          0.18216889	          1.31157672	         -0.35418123	          0.17766860	          1.31026566	         -0.30033135	          0.21832347	          1.24104786	         -0.30115846	          0.28050914	          0.56088823	         -0.20881690	          0.21063444	          0.56089187	         -0.51453972	          0.21063182	          0.61610490	         -0.16380814	          0.14313281	          0.60691899	         -0.46134669	          0.19911721	          0.52889007	         -0.15844789	          0.15938078	          0.52273798	         -0.44502226	         -0.14409497	          0.25988096	         -0.11322676	          0.26876488	          0.19861737	         -0.33221364	         -0.13027166	          0.25858641	         -0.15359460	          0.22782391	          0.19336204	         -0.34302238	         -0.16508973	          0.07347691	         -0.19682999	          0.28873602	          0.04247606	         -0.36501229	
          0.29166672	          0.20997611	          0.88055372	         -0.30074191	         -2.54818058	          4.60932827	         -2.34572196	          2.85980892	        -10.17241478	          1.78305376	        -48.73400879	        -24.98073578	          0.00000000	          0.00000000	         11.05204773	          6.70205307	          5.78662443	         -7.54295397	         -0.73574191	          0.00000000	          0.00000000	         -3.88323140	         -6.31021070	          2.13706255	          0.00000000	          0.00000000	          0.00000000	          0.57766730	          0.00000000	         -0.24287579	        -47.07768348	        606.70584068	         22.76598069	          0.21282698	          0.00000000	         -0.34495370	          0.00000000	          0.00000000	          0.00000000	          0.00000000	          1.38706787	          0.00000000	          0.13823113	          0.82661712	         -0.30715707	          0.12005964	          0.79929203	         -0.23530883	          0.12416790	          0.80926448	         -0.38705361	          0.11824243	          0.42655900	         -0.19415699	          0.17762284	          0.43185124	         -0.36465585	         -0.15921789	          0.17984341	         -0.22051308	          0.17861083	          0.06875461	         -0.33495888	          0.20997611	          0.88055372	         -0.30074191	          0.20287934	          0.87254858	         -0.18252239	          0.21707287	          0.88855880	         -0.41896144	          0.01001107	          0.93360752	         -0.27764884	          0.01056364	          0.93185496	         -0.33236736	          0.11657298	          0.43292925	         -0.13653204	          0.18781860	          0.42990884	         -0.42171961	          0.14101781	          0.41993877	         -0.25455302	          0.18642938	          0.44517925	         -0.30469853	         -0.17513473	          0.19413292	         -0.18671271	          0.16782485	          0.06558560	         -0.37334666	         -0.13951561	          0.17461935	         -0.24915078	          0.18957354	          0.07830400	         -0.31070021	          0.06095570	          1.37639225	         -0.30310178	          0.18600859	          1.31576920	         -0.24868445	          0.18716671	          1.31174266	         -0.35479406	          0.18305926	          1.31049526	         -0.30121207	          0.22336894	          1.24125326	         -0.30187914	          0.28999883	          0.56354278	         -0.20939666	          0.21361861	          0.56066805	         -0.51518917	          0.21982576	          0.61773980	         -0.16479076	          0.14648499	          0.60718107	         -0.46219894	          0.20918038	          0.53009069	         -0.15867276	          0.16279964	          0.52261305	         -0.44511607	         -0.13275112	          0.26158777	         -0.11301906	          0.26974162	          0.19814664	         -0.33208856	         -0.11833710	          0.26034644	         -0.15333259	          0.22894937	          0.19268009	         -0.34285909	         -0.15714565	          0.07604280	         -0.19686070	          0.28878006	          0.04249249	         -0.36496699	
          0.30000004	          0.21454838	          0.88066494	         -0.30171216	         -2.59130669	          4.54512548	         -2.26128006	          4.03627586	        -10.22781372	          1.99960756	        -50.37265015	        -25.35255051	          0.00000000	          0.00000000	         10.80784225	          6.74557161	          5.85530853	         -7.66832495	         -0.29043633	          0.00000000	          0.00000000	         -3.93953919	         -6.47379971	          1.95311570	          0.00000000	          0.00000000	          0.00000000	          0.57998206	          0.00000000	         -0.24242723	        -46.08173950	        609.56298787	         22.59377125	          0.21442534	          0.00000000	         -0.34488489	          0.00000000	          0.00000000	          0.00000000	          0.00000000	          1.37103882	          0.00000000	          0.14253974	          0.82639205	         -0.30811909	          0.12469200	          0.79950726	         -0.23606789	          0.12854804	          0.80936867	         -0.38782653	          0.13025394	          0.42674595	         -0.19381833	          0.18016343	          0.43187061	         -0.36507827	         -0.14868453	          0.18294549	         -0.22104123	          0.17858803	          0.06873408	         -0.33493724	          0.21454838	          0.88066494	         -0.30171216	          0.20765004	          0.87275124	         -0.18351015	          0.22144674	          0.88857871	         -0.41991419	          0.01472850	          0.93374646	         -0.27820358	          0.01519412	          0.93212837	         -0.33292082	          0.12869458	          0.43325266	         -0.13620557	          0.19030972	          0.42981890	         -0.42214704	          0.15121853	          0.42018035	         -0.25318450	          0.19045864	          0.44683960	         -0.30387604	         -0.16428213	          0.19698894	         -0.18698986	          0.16787592	          0.06559239	         -0.37334794	         -0.12934582	          0.17807777	         -0.25019073	          0.18952097	          0.07841242	         -0.31069636	          0.06637123	          1.37681401	         -0.30400485	          0.19133082	          1.31632960	         -0.24942578	          0.19259998	          1.31189108	         -0.35555866	          0.18835159	          1.31072009	         -0.30206737	          0.22870819	          1.24158823	         -0.30231309	          0.29947704	          0.56630826	         -0.21007958	          0.21664870	          0.56043732	         -0.51572555	          0.22906868	          0.61945629	         -0.16546045	          0.14992817	          0.60724753	         -0.46317527	          0.21905315	          0.53141791	         -0.15854679	          0.16645159	          0.52238315	         -0.44505647	         -0.12114173	          0.26309243	         -0.11293088	          0.27067569	          0.19768420	         -0.33199844	         -0.10715657	          0.26227617	         -0.15348618	          0.22997181	          0.19224773	         -0.34219143	         -0.14852482	          0.07848310	         -0.19683793	          0.28884059	          0.04253657	         -0.36489955	
          0.30833337	          0.21905594	          0.88083708	         -0.30266848	         -2.60939598	          4.48037195	         -2.17310023	          5.19620705	        -10.25648785	          2.21145844	        -51.94409561	        -25.58736038	          0.00000000	          0.00000000	         10.51810646	          6.79337311	          5.98400068	         -7.74336433	          0.13009042	          0.00000000	          0.00000000	         -4.05845165	         -6.46133995	          1.63907003	          0.00000000	          0.00000000	          0.00000000	          0.58198505	          0.00000000	         -0.24202147	        -44.90146333	        612.01516275	         21.98276125	          0.21602643	          0.00000000	         -0.34485565	          0.00000000	          0.00000000	          0.00000000	          0.00000000	          1.31772534	          0.00000000	          0.14712037	          0.82654476	         -0.30922455	          0.12930010	          0.79974335	         -0.23680793	          0.13288948	          0.80949670	         -0.38858011	          0.14231794	          0.42706218	         -0.19365692	          0.18254387	          0.43183696	         -0.36546838	         -0.13777950	          0.18580604	         -0.22163460	          0.17859367	          0.06872407	         -0.33491248	          0.21905594	          0.88083708	         -0.30266848	          0.21236779	          0.87301117	         -0.18449381	          0.22574408	          0.88866293	         -0.42084315	          0.01937905	          0.93384862	         -0.27867109	          0.01971915	          0.93237495	         -0.33338782	          0.14086570	          0.43368104	         -0.13605413	          0.19269252	          0.42967913	         -0.42253280	          0.16311300	          0.42071110	         -0.25300589	          0.19391164	          0.44710129	         -0.30453473	         -0.15307984	          0.19959311	         -0.18734442	          0.16792217	          0.06560680	         -0.37333646	         -0.11982231	          0.18372977	         -0.25253460	          0.18939012	          0.07865249	         -0.31063306	          0.07199714	          1.37714231	         -0.30465519	          0.19655550	          1.31641734	         -0.25055602	          0.19818859	          1.31188345	         -0.35638234	          0.19354038	          1.31094027	         -0.30290487	          0.23394397	          1.24154282	         -0.30308750	          0.30891493	          0.56918162	         -0.21087258	          0.21968277	          0.56020969	         -0.51617181	          0.23805690	          0.62090862	         -0.16540582	          0.15314789	          0.60756195	         -0.46370840	          0.22979294	          0.53316611	         -0.15870070	          0.16968580	          0.52270925	         -0.44565120	         -0.10928854	          0.26442486	         -0.11296000	          0.27157348	          0.19721302	         -0.33197540	         -0.09751870	          0.26460841	         -0.15367791	          0.23073821	          0.19226249	         -0.34185752	         -0.13918133	          0.08077113	         -0.19675584	          0.28892094	          0.04260642	         -0.36480492	
